<?xml version="1.0" encoding="UTF-8" standalone="no"?>
<!DOCTYPE svg PUBLIC "-//W3C//DTD SVG 1.1//EN"
 "http://www.w3.org/Graphics/SVG/1.1/DTD/svg11.dtd">
<!-- Generated by graphviz version 9.0.0 (20230911.1827)
 -->
<!-- Title: finance_concepts Pages: 1 -->
<svg width="354pt" height="404pt"
 viewBox="0.00 0.00 353.88 404.00" xmlns="http://www.w3.org/2000/svg" xmlns:xlink="http://www.w3.org/1999/xlink">
<g id="graph0" class="graph" transform="scale(1 1) rotate(0) translate(4 400)">
<title>finance_concepts</title>
<polygon fill="white" stroke="none" points="-4,4 -4,-400 349.88,-400 349.88,4 -4,4"/>
<!-- RiskFreeRate -->
<g id="node1" class="node">
<title>RiskFreeRate</title>
<polygon fill="none" stroke="black" points="185.38,-324 72.62,-324 72.62,-288 185.38,-288 185.38,-324"/>
<text text-anchor="middle" x="129" y="-301.32" font-family="Times,serif" font-size="14.00">RiskFreeRate</text>
</g>
<!-- SharpeRatio -->
<g id="node2" class="node">
<title>SharpeRatio</title>
<polygon fill="none" stroke="black" points="181.25,-252 76.75,-252 76.75,-216 181.25,-216 181.25,-252"/>
<text text-anchor="middle" x="129" y="-229.32" font-family="Times,serif" font-size="14.00">SharpeRatio</text>
</g>
<!-- RiskFreeRate&#45;&gt;SharpeRatio -->
<g id="edge1" class="edge">
<title>RiskFreeRate&#45;&gt;SharpeRatio</title>
<path fill="none" stroke="black" d="M129,-287.7C129,-280.41 129,-271.73 129,-263.54"/>
<polygon fill="black" stroke="black" points="132.5,-263.62 129,-253.62 125.5,-263.62 132.5,-263.62"/>
</g>
<!-- MaxSharpeRatioPortfolio -->
<g id="node5" class="node">
<title>MaxSharpeRatioPortfolio</title>
<polygon fill="none" stroke="black" points="250,-180 0,-180 0,-144 250,-144 250,-180"/>
<text text-anchor="middle" x="125" y="-157.32" font-family="Times,serif" font-size="14.00">Maximum Sharpe Ratio Portfolio</text>
</g>
<!-- SharpeRatio&#45;&gt;MaxSharpeRatioPortfolio -->
<g id="edge3" class="edge">
<title>SharpeRatio&#45;&gt;MaxSharpeRatioPortfolio</title>
<path fill="none" stroke="black" d="M128.01,-215.7C127.59,-208.41 127.1,-199.73 126.63,-191.54"/>
<polygon fill="black" stroke="black" points="130.13,-191.4 126.06,-181.62 123.14,-191.8 130.13,-191.4"/>
</g>
<!-- EfficientFrontier -->
<g id="node3" class="node">
<title>EfficientFrontier</title>
<polygon fill="none" stroke="black" points="269.62,-36 134.38,-36 134.38,0 269.62,0 269.62,-36"/>
<text text-anchor="middle" x="202" y="-13.32" font-family="Times,serif" font-size="14.00">EfficientFrontier</text>
</g>
<!-- CML -->
<g id="node4" class="node">
<title>CML</title>
<polygon fill="none" stroke="black" points="239.62,-108 32.38,-108 32.38,-72 239.62,-72 239.62,-108"/>
<text text-anchor="middle" x="136" y="-85.33" font-family="Times,serif" font-size="14.00">Capital Market Line (CML)</text>
</g>
<!-- CML&#45;&gt;EfficientFrontier -->
<g id="edge5" class="edge">
<title>CML&#45;&gt;EfficientFrontier</title>
<path fill="none" stroke="black" d="M152.31,-71.7C160.07,-63.47 169.49,-53.48 178.03,-44.42"/>
<polygon fill="black" stroke="black" points="180.52,-46.88 184.83,-37.21 175.43,-42.08 180.52,-46.88"/>
</g>
<!-- MaxSharpeRatioPortfolio&#45;&gt;CML -->
<g id="edge4" class="edge">
<title>MaxSharpeRatioPortfolio&#45;&gt;CML</title>
<path fill="none" stroke="black" d="M127.72,-143.7C128.88,-136.32 130.26,-127.52 131.56,-119.25"/>
<polygon fill="black" stroke="black" points="134.98,-120.02 133.08,-109.6 128.07,-118.93 134.98,-120.02"/>
</g>
<!-- ExpectedReturns -->
<g id="node6" class="node">
<title>ExpectedReturns</title>
<polygon fill="none" stroke="black" points="345.88,-324 206.12,-324 206.12,-288 345.88,-288 345.88,-324"/>
<text text-anchor="middle" x="276" y="-301.32" font-family="Times,serif" font-size="14.00">ExpectedReturns</text>
</g>
<!-- ExpectedReturns&#45;&gt;SharpeRatio -->
<g id="edge2" class="edge">
<title>ExpectedReturns&#45;&gt;SharpeRatio</title>
<path fill="none" stroke="black" d="M239.28,-287.52C220.09,-278.38 196.4,-267.09 175.89,-257.33"/>
<polygon fill="black" stroke="black" points="177.4,-254.17 166.87,-253.03 174.39,-260.49 177.4,-254.17"/>
</g>
<!-- ExpectedReturns&#45;&gt;EfficientFrontier -->
<g id="edge7" class="edge">
<title>ExpectedReturns&#45;&gt;EfficientFrontier</title>
<path fill="none" stroke="black" d="M277.54,-287.65C280.36,-247.58 283.25,-146.34 249,-72 244.39,-61.99 237.25,-52.5 229.91,-44.38"/>
<polygon fill="black" stroke="black" points="232.5,-42.02 223.04,-37.25 227.46,-46.88 232.5,-42.02"/>
</g>
<!-- HistoricReturns -->
<g id="node7" class="node">
<title>HistoricReturns</title>
<polygon fill="none" stroke="black" points="341,-396 211,-396 211,-360 341,-360 341,-396"/>
<text text-anchor="middle" x="276" y="-373.32" font-family="Times,serif" font-size="14.00">HistoricReturns</text>
</g>
<!-- HistoricReturns&#45;&gt;ExpectedReturns -->
<g id="edge6" class="edge">
<title>HistoricReturns&#45;&gt;ExpectedReturns</title>
<path fill="none" stroke="black" d="M276,-359.7C276,-352.41 276,-343.73 276,-335.54"/>
<polygon fill="black" stroke="black" points="279.5,-335.62 276,-325.62 272.5,-335.62 279.5,-335.62"/>
</g>
</g>
</svg>
